<svg width="17" height="17" viewBox="0 0 17 17" fill="none" xmlns="http://www.w3.org/2000/svg">
	<path fill-rule="evenodd" clip-rule="evenodd" d="M11.939 10.6886L16.5637 15.3133C16.9092 15.6592 16.9092 16.2197 16.5637 16.5656C16.2154 16.9054 15.6597 16.9054 15.3114 16.5656L10.6867 11.9409C7.93316 14.0356 4.02756 13.6386 1.75187 11.0327C-0.523818 8.42683 -0.391283 4.50335 2.05507 2.05699C4.50142 -0.38936 8.42491 -0.521895 11.0308 1.7538C13.6366 4.02949 14.0336 7.93508 11.939 10.6886ZM6.72917 1.94773C4.08856 1.94773 1.94792 4.08837 1.94792 6.72898C1.95104 9.3683 4.08985 11.5071 6.72917 11.5102C9.36978 11.5102 11.5104 9.36959 11.5104 6.72898C11.5104 4.08837 9.36978 1.94773 6.72917 1.94773Z" fill="#afb6c1"/>
</svg>